<svg width="14" height="18" viewBox="0 0 14 18" fill="none" xmlns="http://www.w3.org/2000/svg">
<path d="M13.4173 17.2668L13.1267 17.6737C13.2791 17.7826 13.4796 17.7971 13.6461 17.7114C13.8126 17.6257 13.9173 17.4541 13.9173 17.2668H13.4173ZM7.00065 12.6835L7.29127 12.2766C7.11742 12.1525 6.88388 12.1525 6.71003 12.2766L7.00065 12.6835ZM0.583984 17.2668H0.0839844C0.0839844 17.4541 0.188658 17.6257 0.355194 17.7114C0.521729 17.7971 0.722196 17.7826 0.874603 17.6737L0.583984 17.2668ZM2.41732 0.766846L2.41732 0.266846L2.41732 0.766846ZM11.584 0.766846V0.266846V0.766846ZM13.7079 16.86L7.29127 12.2766L6.71003 13.0904L13.1267 17.6737L13.7079 16.86ZM6.71003 12.2766L0.293365 16.86L0.874603 17.6737L7.29127 13.0904L6.71003 12.2766ZM1.08398 17.2668V2.60018H0.0839844V17.2668H1.08398ZM1.08398 2.60018C1.08398 2.24656 1.22446 1.90742 1.47451 1.65737L0.767402 0.950263C0.329817 1.38785 0.0839844 1.98134 0.0839844 2.60018H1.08398ZM1.47451 1.65737C1.72456 1.40732 2.0637 1.26685 2.41732 1.26685L2.41732 0.266846C1.79848 0.266846 1.20499 0.512678 0.767402 0.950263L1.47451 1.65737ZM2.41732 1.26685H11.584V0.266846H2.41732V1.26685ZM11.584 1.26685C11.9376 1.26685 12.2767 1.40732 12.5268 1.65737L13.2339 0.950263C12.7963 0.512678 12.2028 0.266846 11.584 0.266846V1.26685ZM12.5268 1.65737C12.7768 1.90742 12.9173 2.24656 12.9173 2.60018H13.9173C13.9173 1.98134 13.6715 1.38785 13.2339 0.950263L12.5268 1.65737ZM12.9173 2.60018V17.2668H13.9173V2.60018H12.9173Z" fill="#8C8C8C"/>
</svg>
