<svg width="384" height="256" viewBox="0 0 384 256" fill="none" xmlns="http://www.w3.org/2000/svg">
<g clip-path="url(#clip0_10638_42973)">
<rect width="384" height="256" fill="url(#paint0_linear_10638_42973)"/>
<path fill-rule="evenodd" clip-rule="evenodd" d="M108.764 127.174L33.4453 207.999H108.764V127.174Z" fill="#E8E8E8"/>
<path d="M185.393 207.999L108.764 127.174V207.999H185.393Z" fill="#E1E1E1"/>
<path fill-rule="evenodd" clip-rule="evenodd" d="M204.782 92L107.768 208H204.782V92Z" fill="#E8E8E8"/>
<path d="M303.483 208L204.782 92V208H303.483Z" fill="#E1E1E1"/>
<path fill-rule="evenodd" clip-rule="evenodd" d="M277.257 122.684L205.213 207.999H277.257V122.684Z" fill="#E8E8E8"/>
<path d="M350.554 207.999L277.257 122.684V207.999H350.554Z" fill="#E1E1E1"/>
<circle cx="96.5" cy="58.5" r="33.5" fill="url(#paint1_linear_10638_42973)"/>
<rect y="208" width="384" height="48" fill="url(#paint2_radial_10638_42973)"/>
<path d="M333.936 78.9286C333.936 85.5954 321.11 91 314.5 91C307.891 91 302.532 85.5954 302.532 78.9286C302.532 72.2617 307.891 66.8571 314.5 66.8571C321.11 66.8571 333.936 72.2617 333.936 78.9286Z" fill="url(#paint3_linear_10638_42973)"/>
<path d="M368 78.9286C368 85.5954 362.641 91 356.032 91C349.422 91 344.063 85.5954 344.063 78.9286C344.063 72.2617 349.422 66.8571 356.032 66.8571C362.641 66.8571 368 72.2617 368 78.9286Z" fill="url(#paint4_linear_10638_42973)"/>
<path d="M353.349 67.7857C353.349 76.5039 346.342 83.5714 337.698 83.5714C329.055 83.5714 322.047 76.5039 322.047 67.7857C322.047 59.0675 329.055 52 337.698 52C346.342 52 353.349 59.0675 353.349 67.7857Z" fill="url(#paint5_linear_10638_42973)"/>
<path d="M314.5 66.8571H356.952V91H314.5V66.8571Z" fill="url(#paint6_linear_10638_42973)"/>
<path d="M219.984 49.4048C219.984 54.7041 215.734 59 210.492 59C205.25 59 201 54.7041 201 49.4048C201 44.1055 205.25 39.8095 210.492 39.8095C215.734 39.8095 219.984 44.1055 219.984 49.4048Z" fill="url(#paint7_linear_10638_42973)"/>
<path d="M247 49.4048C247 54.7041 242.75 59 237.508 59C232.266 59 228.016 49.4048 228.016 49.4048C228.016 49.4048 232.266 39.8095 237.508 39.8095C242.75 39.8095 247 44.1055 247 49.4048Z" fill="url(#paint8_linear_10638_42973)"/>
<path d="M234.587 40.5476C234.587 47.4775 229.03 53.0952 222.175 53.0952C215.319 53.0952 209.762 47.4775 209.762 40.5476C209.762 33.6178 215.319 28 222.175 28C229.03 28 234.587 33.6178 234.587 40.5476Z" fill="url(#paint9_linear_10638_42973)"/>
<path d="M210.492 39.8095H238.238V59H210.492V39.8095Z" fill="url(#paint10_linear_10638_42973)"/>
<path d="M36.9841 117.405C36.9841 122.704 32.7344 127 27.4921 127C22.2497 127 18 122.704 18 117.405C18 112.105 22.2497 107.81 27.4921 107.81C32.7344 107.81 36.9841 112.105 36.9841 117.405Z" fill="url(#paint11_linear_10638_42973)"/>
<path d="M64 117.405C64 122.704 59.7503 127 54.5079 127C49.2656 127 45.0159 122.704 45.0159 117.405C45.0159 112.105 49.2656 107.81 54.5079 107.81C59.7503 107.81 64 112.105 64 117.405Z" fill="url(#paint12_linear_10638_42973)"/>
<path d="M51.5873 108.548C51.5873 115.477 46.0299 121.095 39.1746 121.095C32.3193 121.095 26.7619 115.477 26.7619 108.548C26.7619 101.618 32.3193 96 39.1746 96C46.0299 96 51.5873 101.618 51.5873 108.548Z" fill="url(#paint13_linear_10638_42973)"/>
<path d="M27.4921 107.81H55.2381V127H27.4921V107.81Z" fill="url(#paint14_linear_10638_42973)"/>
<rect x="356.672" y="199.164" width="1.65672" height="8.83582" fill="#D9D9D9"/>
<path fill-rule="evenodd" clip-rule="evenodd" d="M357.5 171L350.331 189.184C348.337 194.241 352.064 199.716 357.5 199.716V199.716V171Z" fill="#E8E8E8"/>
<path d="M357.5 199.716C362.935 199.716 366.662 194.241 364.668 189.184L357.5 171V199.716V199.716Z" fill="#E1E1E1"/>
<rect x="19.4932" y="199.164" width="1.65672" height="8.83582" fill="#D9D9D9"/>
<path fill-rule="evenodd" clip-rule="evenodd" d="M20.3209 171L13.152 189.184C11.1586 194.241 14.8857 199.716 20.3209 199.716V199.716V171Z" fill="#E8E8E8"/>
<path d="M20.3209 199.716C25.7561 199.716 29.4832 194.241 27.4897 189.184L20.3209 171V199.716V199.716Z" fill="#E1E1E1"/>
<rect x="302.403" y="198.209" width="1.83582" height="9.79105" fill="#D9D9D9"/>
<path fill-rule="evenodd" clip-rule="evenodd" d="M303.321 167L295.377 187.15C293.168 192.753 297.298 198.821 303.321 198.821V198.821V167Z" fill="#E8E8E8"/>
<path d="M303.321 198.821C309.344 198.821 313.474 192.753 311.265 187.15L303.321 167V198.821V198.821Z" fill="#DBDBDB"/>
<rect x="128.627" y="198.209" width="1.83582" height="9.79105" fill="#D9D9D9"/>
<path fill-rule="evenodd" clip-rule="evenodd" d="M129.545 167L121.601 187.15C119.392 192.753 123.522 198.821 129.545 198.821V198.821V167Z" fill="#E8E8E8"/>
<path d="M129.545 198.821C135.568 198.821 139.698 192.753 137.489 187.15L129.545 167V198.821V198.821Z" fill="#DBDBDB"/>
<rect x="58.5371" y="197.254" width="2.01493" height="10.7463" fill="#D9D9D9"/>
<path fill-rule="evenodd" clip-rule="evenodd" d="M59.545 163L50.8261 185.116C48.4017 191.266 52.9346 197.925 59.545 197.925V197.925V163Z" fill="#E8E8E8"/>
<path d="M59.545 197.925C66.1554 197.925 70.6883 191.266 68.2639 185.116L59.545 163V197.925V197.925Z" fill="#DBDBDB"/>
<path d="M40.5 228.309H60" stroke="#E0E0E0" stroke-width="2" stroke-linecap="round" stroke-linejoin="round"/>
<path d="M319 237.838H338.5" stroke="#E0E0E0" stroke-width="2" stroke-linecap="round" stroke-linejoin="round"/>
<path d="M142 236.25H161.5" stroke="#E0E0E0" stroke-width="2" stroke-linecap="round" stroke-linejoin="round"/>
<path d="M155 216H174.5" stroke="#E0E0E0" stroke-width="2" stroke-linecap="round" stroke-linejoin="round"/>
<path d="M-6 216H13.5" stroke="#E0E0E0" stroke-width="2" stroke-linecap="round" stroke-linejoin="round"/>
<path d="M20 241.412H39.5" stroke="#E0E0E0" stroke-width="2" stroke-linecap="round" stroke-linejoin="round"/>
<path d="M220 223.545H239.5" stroke="#E0E0E0" stroke-width="2" stroke-linecap="round" stroke-linejoin="round"/>
<path d="M73 220.766H92.5" stroke="#E0E0E0" stroke-width="2" stroke-linecap="round" stroke-linejoin="round"/>
<path d="M351.5 230.295H371" stroke="#E0E0E0" stroke-width="2" stroke-linecap="round" stroke-linejoin="round"/>
<path d="M174.5 228.705H194" stroke="#E0E0E0" stroke-width="2" stroke-linecap="round" stroke-linejoin="round"/>
<path d="M252.5 216H272" stroke="#E0E0E0" stroke-width="2" stroke-linecap="round" stroke-linejoin="round"/>
<path d="M99 233.471H118.5" stroke="#E0E0E0" stroke-width="2" stroke-linecap="round" stroke-linejoin="round"/>
<path d="M377.5 243H397" stroke="#E0E0E0" stroke-width="2" stroke-linecap="round" stroke-linejoin="round"/>
<path d="M200.5 241.412H220" stroke="#E0E0E0" stroke-width="2" stroke-linecap="round" stroke-linejoin="round"/>
<path d="M278.5 228.705H298" stroke="#E0E0E0" stroke-width="2" stroke-linecap="round" stroke-linejoin="round"/>
</g>
<defs>
<linearGradient id="paint0_linear_10638_42973" x1="192" y1="0" x2="192" y2="256" gradientUnits="userSpaceOnUse">
<stop stop-color="#F4F4F4"/>
<stop offset="1" stop-color="#F9F9F9"/>
</linearGradient>
<linearGradient id="paint1_linear_10638_42973" x1="96.5" y1="25" x2="96.5" y2="92" gradientUnits="userSpaceOnUse">
<stop stop-color="#DDDDDD"/>
<stop offset="1" stop-color="#EBEBEB"/>
</linearGradient>
<radialGradient id="paint2_radial_10638_42973" cx="0" cy="0" r="1" gradientUnits="userSpaceOnUse" gradientTransform="translate(192 208) rotate(90) scale(80.5 208.865)">
<stop stop-color="#F7F7F7"/>
<stop offset="1" stop-color="#E3E3E3"/>
</radialGradient>
<linearGradient id="paint3_linear_10638_42973" x1="339" y1="52" x2="339" y2="91" gradientUnits="userSpaceOnUse">
<stop stop-color="#DDDDDD"/>
<stop offset="1" stop-color="#EBEBEB"/>
</linearGradient>
<linearGradient id="paint4_linear_10638_42973" x1="339" y1="52" x2="339" y2="91" gradientUnits="userSpaceOnUse">
<stop stop-color="#DDDDDD"/>
<stop offset="1" stop-color="#EBEBEB"/>
</linearGradient>
<linearGradient id="paint5_linear_10638_42973" x1="339" y1="52" x2="339" y2="91" gradientUnits="userSpaceOnUse">
<stop stop-color="#DDDDDD"/>
<stop offset="1" stop-color="#EBEBEB"/>
</linearGradient>
<linearGradient id="paint6_linear_10638_42973" x1="339" y1="52" x2="339" y2="91" gradientUnits="userSpaceOnUse">
<stop stop-color="#DDDDDD"/>
<stop offset="1" stop-color="#EBEBEB"/>
</linearGradient>
<linearGradient id="paint7_linear_10638_42973" x1="224" y1="28" x2="224" y2="59" gradientUnits="userSpaceOnUse">
<stop stop-color="#DDDDDD"/>
<stop offset="1" stop-color="#EBEBEB"/>
</linearGradient>
<linearGradient id="paint8_linear_10638_42973" x1="224" y1="28" x2="224" y2="59" gradientUnits="userSpaceOnUse">
<stop stop-color="#DDDDDD"/>
<stop offset="1" stop-color="#EBEBEB"/>
</linearGradient>
<linearGradient id="paint9_linear_10638_42973" x1="224" y1="28" x2="224" y2="59" gradientUnits="userSpaceOnUse">
<stop stop-color="#DDDDDD"/>
<stop offset="1" stop-color="#EBEBEB"/>
</linearGradient>
<linearGradient id="paint10_linear_10638_42973" x1="224" y1="28" x2="224" y2="59" gradientUnits="userSpaceOnUse">
<stop stop-color="#DDDDDD"/>
<stop offset="1" stop-color="#EBEBEB"/>
</linearGradient>
<linearGradient id="paint11_linear_10638_42973" x1="41" y1="96" x2="41" y2="127" gradientUnits="userSpaceOnUse">
<stop stop-color="#DDDDDD"/>
<stop offset="1" stop-color="#EBEBEB"/>
</linearGradient>
<linearGradient id="paint12_linear_10638_42973" x1="41" y1="96" x2="41" y2="127" gradientUnits="userSpaceOnUse">
<stop stop-color="#DDDDDD"/>
<stop offset="1" stop-color="#EBEBEB"/>
</linearGradient>
<linearGradient id="paint13_linear_10638_42973" x1="41" y1="96" x2="41" y2="127" gradientUnits="userSpaceOnUse">
<stop stop-color="#DDDDDD"/>
<stop offset="1" stop-color="#EBEBEB"/>
</linearGradient>
<linearGradient id="paint14_linear_10638_42973" x1="41" y1="96" x2="41" y2="127" gradientUnits="userSpaceOnUse">
<stop stop-color="#DDDDDD"/>
<stop offset="1" stop-color="#EBEBEB"/>
</linearGradient>
<clipPath id="clip0_10638_42973">
<rect width="384" height="256" fill="white"/>
</clipPath>
</defs>
</svg>
