<svg width="16" height="16" viewBox="0 0 16 16" fill="none" xmlns="http://www.w3.org/2000/svg">
<path d="M15.5508 8C15.5508 12.2802 12.081 15.75 7.80078 15.75C3.52056 15.75 0.0507812 12.2802 0.0507812 8C0.0507812 3.71978 3.52056 0.25 7.80078 0.25C12.081 0.25 15.5508 3.71978 15.5508 8ZM6.90434 12.1036L12.6543 6.35356C12.8496 6.15831 12.8496 5.84172 12.6543 5.64647L11.9473 4.93937C11.752 4.74409 11.4354 4.74409 11.2401 4.93937L6.55078 9.62869L4.36144 7.43934C4.16619 7.24409 3.84959 7.24409 3.65431 7.43934L2.94722 8.14644C2.75197 8.34169 2.75197 8.65828 2.94722 8.85353L6.19722 12.1035C6.3925 12.2988 6.70906 12.2988 6.90434 12.1036Z" fill="#666666"/>
</svg>
