<svg width="26" height="26" viewBox="0 0 26 26" fill="none" xmlns="http://www.w3.org/2000/svg">
<g clip-path="url(#clip0_181717_150613)">
<path d="M0.000558036 13C0.000558036 5.82129 5.82129 0.000558036 13 0.000558036C20.1787 0.000558036 25.9994 5.82129 25.9994 13C25.9994 20.1787 20.1787 25.9994 13 25.9994C5.82129 25.9994 0.000558036 20.1787 0.000558036 13ZM2.2048 13C2.2048 18.9606 7.03942 23.7952 13 23.7952C18.9606 23.7952 23.7952 18.9606 23.7952 13C23.7952 7.03942 18.9606 2.2048 13 2.2048C7.03942 2.2048 2.2048 7.03942 2.2048 13ZM12.015 8.87736C11.7539 8.61625 11.6072 8.26212 11.6072 7.89286C11.6072 7.5236 11.7539 7.16946 12.015 6.90835C12.2761 6.64725 12.6303 6.50056 12.9995 6.50056C13.3688 6.50056 13.7229 6.64725 13.984 6.90835C14.2452 7.16946 14.3918 7.5236 14.3918 7.89286C14.3918 8.26212 14.2452 8.61625 13.984 8.87736C13.7229 9.13847 13.3688 9.28516 12.9995 9.28516C12.6303 9.28516 12.2761 9.13847 12.015 8.87736ZM12.3031 11.1434H13.696C13.8233 11.1434 13.9276 11.2476 13.9276 11.375V19.2679C13.9276 19.3952 13.8233 19.4994 13.696 19.4994H12.3031C12.1757 19.4994 12.0715 19.3952 12.0715 19.2679V11.375C12.0715 11.2476 12.1757 11.1434 12.3031 11.1434Z" fill="#444444" stroke="#444444" stroke-width="0.00111607"/>
</g>
<defs>
<clipPath id="clip0_181717_150613">
<rect width="26" height="26" fill="white"/>
</clipPath>
</defs>
</svg>
