<svg width="74" height="20" viewBox="0 0 74 20" fill="none" xmlns="http://www.w3.org/2000/svg">
<g clip-path="url(#clip0_180119_75602)">
<path d="M10.0023 0C4.4752 0 0 4.4752 0 10.0023C0 15.5294 4.4752 20.0046 10.0023 20.0046C15.5294 20.0046 20 15.5294 20 10.0023C20 4.4752 15.5248 0 10.0023 0ZM12.4014 13.6009V14.3991H9.60092V5.60092H10.3991V13.6009H12.4014ZM10.0023 18.3991C5.36101 18.3991 1.60092 14.639 1.60092 9.99769C1.60092 5.3564 5.36101 1.60092 10.0023 1.60092H10.4037V2.39908H10.0023C5.80392 2.39908 2.40369 5.79931 2.40369 9.99769C2.40369 14.1961 5.80854 17.5963 10.0023 17.5963C14.1961 17.5963 17.3841 14.4083 17.5917 10.3945H12.4014V9.59631H18.4037V9.99769C18.4037 14.6344 14.6436 18.3991 10.0023 18.3991ZM8 6.80046C8 7.46482 7.46482 8 6.80046 8C6.1361 8 5.60092 7.46482 5.60092 6.80046C5.60092 6.1361 6.1361 5.60092 6.80046 5.60092C7.46482 5.60092 8 6.14072 8 6.80046Z" fill="white"/>
<path d="M28.1844 4.00031H25.001V16.0003H33.6746V13.3798H28.189V4.00031H28.1844ZM40.3874 11.3452H42.8141C42.8141 11.3452 42.8372 14.0165 40.332 14.0165C39.6953 14.0165 39.1232 13.7858 38.6896 13.3521C38.0067 12.6739 37.6515 11.5251 37.6515 10.0395C37.6515 7.58047 38.6296 6.11334 40.2674 6.11334C41.2916 6.11334 42.0575 6.74079 42.2559 7.6912H45.633C45.4577 6.30712 45.0748 5.58739 44.1475 4.85383C43.1509 4.08336 41.8729 3.69581 40.3458 3.69581C38.5327 3.69581 37.0194 4.25406 35.9629 5.30596C34.8603 6.404 34.2789 8.02799 34.2789 9.998C34.2789 12.0972 34.8972 13.8688 36.0137 14.9899C36.8902 15.8665 38.0575 16.3325 39.3954 16.3325C42.3343 16.3325 43.0079 14.5701 43.0079 14.5701V16.0142H45.6607V9.23676H40.3828V11.359L40.3874 11.3452ZM70.4543 4.00031V0.641602H67.7461V4.00031H64.3874V6.7085H67.7461V10.0672H70.4543V6.7085H73.813V4.00031H70.4543ZM58.9433 10.9438C58.9433 12.6139 58.5881 13.7258 56.858 13.7258C55.4831 13.7258 54.8418 12.8954 54.8418 11.1099V4.00031H51.663V11.3452C51.663 14.5424 53.5177 16.3094 56.8949 16.3094C60.272 16.3094 62.1221 14.5839 62.1221 11.3129V4.00492H58.9433V10.9484V10.9438Z" fill="white"/>
</g>
<defs>
<clipPath id="clip0_180119_75602">
<rect width="73.8178" height="20" fill="white"/>
</clipPath>
</defs>
</svg>
